<svg xmlns="http://www.w3.org/2000/svg" version="1.1" xmlns:xlink="http://www.w3.org/1999/xlink" xmlns:svgjs="http://svgjs.dev/svgjs" width="2000" height="262" viewBox="0 0 2000 262"><g transform="matrix(1,0,0,1,-1.2121212121212466,-0.7910883239955808)"><svg viewBox="0 0 396 52" data-background-color="#ffffff" preserveAspectRatio="xMidYMid meet" height="262" width="2000" xmlns="http://www.w3.org/2000/svg" xmlns:xlink="http://www.w3.org/1999/xlink"><g id="tight-bounds" transform="matrix(1,0,0,1,0.2400000000000091,0.15700989636553686)"><svg viewBox="0 0 395.52 51.685980207268926" height="51.685980207268926" width="395.52"><g><svg viewBox="0 0 470.26116890706135 61.45304780637521" height="51.685980207268926" width="395.52"><g transform="matrix(1,0,0,1,74.74116890706136,16.654656050582776)"><svg viewBox="0 0 395.52 28.143735705209657" height="28.143735705209657" width="395.52"><g id="textblocktransform"><svg viewBox="0 0 395.52 28.143735705209657" height="28.143735705209657" width="395.52" id="textblock"><g><svg viewBox="0 0 395.52 28.143735705209657" height="28.143735705209657" width="395.52"><g transform="matrix(1,0,0,1,0,0)"><svg width="395.52" viewBox="1.3 -32.8 472.15 33.599999999999994" height="28.143735705209657" data-palette-color="#961019"><path d="M11.05 0.6Q8.6 0.6 6.55 0.15 4.5-0.3 3.15-0.83 1.8-1.35 1.8-1.4L1.8-1.4 1.3-2.2Q1.35-2.55 1.55-3.75 1.75-4.95 1.98-6.93 2.2-8.9 2.25-10.6L2.25-10.6 7.3-10.95Q7.3-7.45 8.45-6.1 9.6-4.75 12.35-4.75L12.35-4.75Q14.35-4.75 15.55-5.58 16.75-6.4 16.75-7.85L16.75-7.85Q16.75-9.35 15.33-10.35 13.9-11.35 10.9-12.7L10.9-12.7Q10.5-12.9 10.13-13.08 9.75-13.25 9.45-13.4L9.45-13.4Q5.85-15.1 3.75-17.15 1.65-19.2 1.65-22.5L1.65-22.5Q1.65-25.5 3.45-27.85 5.25-30.2 8.47-31.5 11.7-32.8 15.85-32.8L15.85-32.8Q18.15-32.8 20.15-32.5 22.15-32.2 23.35-31.88 24.55-31.55 24.85-31.45L24.85-31.45 25.3-30.6Q25.25-30.3 25.03-29.15 24.8-28 24.5-25.98 24.2-23.95 24.05-21.95L24.05-21.95 19.4-21.6 18.9-22 18.95-23.35Q18.95-25.35 17.9-26.25 16.85-27.15 14.6-27.15L14.6-27.15Q12.8-27.15 11.65-26.33 10.5-25.5 10.5-24.15L10.5-24.15Q10.5-23.05 11.35-22.2 12.2-21.35 13.35-20.73 14.5-20.1 16.95-19L16.95-19Q19.65-17.8 21.45-16.7 23.25-15.6 24.48-13.85 25.7-12.1 25.7-9.65L25.7-9.65Q25.7-6.55 23.9-4.23 22.1-1.9 18.8-0.65 15.5 0.6 11.05 0.6L11.05 0.6ZM32.7 0.4L33-2.95Q34.75-3.1 35.6-3.4 36.45-3.7 36.77-4.33 37.1-4.95 37.1-6.2L37.1-6.2 37.1-6.95Q37.1-7.85 36.85-8.6 36.6-9.35 35.95-10.6L35.95-10.6 31.6-18.25Q30.85-19.5 29.85-20.35 28.85-21.2 27.35-21.7L27.35-21.7 27.15-21.9 27.55-25.15Q28.25-25.15 30.1-25.1 31.95-25.05 33.5-25.05L33.5-25.05Q34.7-25.05 37.25-25.18 39.8-25.3 40.65-25.35L40.65-25.35 40.95-24.95 40.55-22Q39.55-22 39.1-21.75 38.65-21.5 38.65-20.95L38.65-20.95Q38.65-20.65 39.35-19.1 40.05-17.55 40.25-17.05L40.25-17.05Q40.85-15.85 41.35-14.65L41.35-14.65 41.85-14.65 44.05-19.55Q44.65-20.6 44.65-21.35L44.65-21.35Q44.65-22 42.9-22L42.9-22 42.75-22.25 43.1-25.1 49.25-25.05Q50.85-25.05 52.15-25.1 53.45-25.15 53.85-25.2L53.85-25.2 54-24.9 53.65-21.8Q51-20.55 48.9-16.9L48.9-16.9 45.1-9.85Q44.65-8.9 44.55-8.1 44.45-7.3 44.45-5.55L44.45-5.55Q44.45-4.3 44.9-3.8 45.35-3.3 46.45-3.3L46.45-3.3Q47.2-3.3 47.77-3.35 48.35-3.4 48.55-3.4L48.55-3.4 48.75-3.2 48.35 0.2Q47.45 0.15 45.02 0.08 42.6 0 40.35 0L40.35 0Q38.75 0 36.15 0.18 33.55 0.35 32.7 0.4L32.7 0.4ZM68.2 0.5Q66.5-5.1 65-9.63 63.5-14.15 63.1-14.95L63.1-14.95 62.6-14.95Q62.55-13.45 62.4-9.98 62.25-6.5 62.2-4.5L62.2-4.5Q62.2-3.8 62.52-3.5 62.85-3.2 63.55-3.2L63.55-3.2 64.75-3.25 65.05-3 64.59 0.15Q63.9 0.15 62.17 0.08 60.45 0 59 0L59 0Q57.9 0 56.4 0.1 54.9 0.2 54.4 0.3L54.4 0.3 54.65-2.95Q55.85-3.1 56.42-3.68 57-4.25 57.1-5.6L57.1-5.6Q57.35-7.85 57.97-13.68 58.6-19.5 58.6-20.15L58.6-20.15Q58.6-20.9 58.42-21.2 58.25-21.5 57.72-21.63 57.2-21.75 55.85-21.9L55.85-21.9 55.55-22.25 56-25.3Q56.65-25.25 58.4-25.18 60.15-25.1 61.75-25.1L61.75-25.1Q63.55-25.1 65.25-25.15 66.95-25.2 67.55-25.25L67.55-25.25Q68.55-21.2 69.72-17.18 70.9-13.15 71.25-12L71.25-12 71.75-12Q72.15-13.15 73.4-17.15 74.65-21.15 75.84-25.1L75.84-25.1Q76.8-25.15 77.52-25.13 78.25-25.1 78.75-25.1L78.75-25.1 80.2-25.1Q81.84-25.1 82.65-25.15L82.65-25.15Q84.05-25.2 85.17-25.25 86.3-25.3 86.65-25.35L86.65-25.35 86.9-25.2 86.55-22.05Q84.84-21.95 84.3-21.55 83.75-21.15 83.75-20L83.75-20Q83.75-18.4 84.07-14.05 84.4-9.7 84.7-6.65L84.7-6.65Q84.84-4.7 85.27-3.98 85.7-3.25 86.65-3.25L86.65-3.25 87.84-3.3 88.09-3 87.75 0.1 83.3 0Q81.8 0 79.05 0.13 76.3 0.25 76 0.3L76 0.3 76.4-3Q77.59-3.1 78.09-3.55 78.59-4 78.59-4.9L78.59-4.9Q78.59-5.95 78.42-9.78 78.25-13.6 78.2-14.95L78.2-14.95 77.7-14.95Q77.3-14.05 75.72-9.53 74.15-5 72.59 0.1L72.59 0.1 68.2 0.5ZM90.14 0.35L90.49-3Q92.09-3.25 92.67-3.95 93.24-4.65 93.24-6.25L93.24-6.25 93.24-19.8Q93.24-21 92.99-21.45 92.74-21.9 92.09-21.9L92.09-21.9 90.64-21.85 90.29-22.25 90.69-25.15 96.34-25.1Q98.19-25.1 100.37-25.2 102.54-25.3 103.39-25.35L103.39-25.35Q109.54-25.35 111.89-22.98 114.24-20.6 114.24-17.4L114.24-17.4Q114.24-15 112.84-12.9 111.44-10.8 109.07-9.55 106.69-8.3 104.04-8.3L104.04-8.3 100.49-8.3 100.44-6.15Q100.44-4.4 100.84-3.8 101.24-3.2 102.49-3.2L102.49-3.2Q102.99-3.2 103.44-3.25 103.89-3.3 104.04-3.3L104.04-3.3 104.19-3 103.79 0.15Q103.04 0.15 101.14 0.08 99.24 0 97.59 0L97.59 0Q96.34 0 93.69 0.15 91.04 0.3 90.14 0.35L90.14 0.35ZM103.69-12.3Q105.14-12.7 105.84-13.85 106.54-15 106.54-16.95L106.54-16.95Q106.54-19 105.39-19.93 104.24-20.85 101.69-20.85L101.69-20.85Q101.24-20.85 101.12-20.7 100.99-20.55 100.94-20.05L100.94-20.05Q100.64-15.95 100.59-12.75L100.59-12.75 103.69-12.3ZM115.64 0.25L115.94-2.9Q117.64-3.2 118.19-3.83 118.74-4.45 118.74-6.1L118.74-6.1 118.74-19.9Q118.74-21.1 118.44-21.5 118.14-21.9 117.29-21.9L117.29-21.9 116.14-21.9 115.79-22.35 116.14-25.15 121.34-25.1Q123.49-25.1 125.77-25.18 128.04-25.25 128.89-25.3L128.89-25.3 128.64-22.05Q127.24-21.85 126.84-21.45 126.44-21.05 126.39-19.85L126.39-19.85 126.14-14.95 130.24-14.8Q132.74-14.8 134.14-15L134.14-15 134.19-19.9Q134.19-21.1 133.89-21.5 133.59-21.9 132.69-21.9L132.69-21.9 131.54-21.9 131.19-22.35 131.54-25.15Q131.54-25.1 137.74-25.1L137.74-25.1Q139.59-25.1 141.69-25.18 143.79-25.25 144.59-25.3L144.59-25.3 144.34-22.1Q142.84-21.9 142.39-21.53 141.94-21.15 141.84-20L141.84-20Q141.39-13.8 141.39-5.85L141.39-5.85Q141.39-4.35 141.77-3.8 142.14-3.25 143.04-3.25L143.04-3.25Q143.49-3.25 143.84-3.3 144.19-3.35 144.29-3.35L144.29-3.35 144.64-2.95 144.24 0.05 137.54 0 131.04 0.05 131.34-3.15Q132.89-3.15 133.52-3.83 134.14-4.5 134.14-6.25L134.14-6.25 134.14-10.45 131.04-10.5Q129.84-10.45 128.24-10.33 126.64-10.2 125.99-10.15L125.99-10.15 125.94-5.85Q125.94-4.25 126.24-3.7 126.54-3.15 127.39-3.15L127.39-3.15Q127.84-3.15 128.19-3.2 128.54-3.25 128.64-3.3L128.64-3.3 128.89-2.9 128.54 0.15Q127.79 0.15 125.92 0.08 124.04 0 122.39 0L122.39 0Q120.64 0 118.49 0.08 116.34 0.15 115.64 0.25L115.64 0.25ZM159.14 0.45Q153.29 0.45 150.11-2.8 146.94-6.05 146.94-12.05L146.94-12.05Q146.94-18.5 150.49-22.03 154.04-25.55 160.49-25.55L160.49-25.55Q166.44-25.55 169.56-22.43 172.69-19.3 172.69-13.25L172.69-13.25Q172.69-6.8 169.09-3.18 165.49 0.45 159.14 0.45L159.14 0.45ZM159.99-4.05Q162.14-4.05 163.19-5.7 164.24-7.35 164.24-10.9L164.24-10.9Q164.24-16.1 163.11-18.38 161.99-20.65 159.54-20.65L159.54-20.65Q157.44-20.65 156.44-19.03 155.44-17.4 155.44-13.85L155.44-13.85Q155.44-8.65 156.51-6.35 157.59-4.05 159.99-4.05L159.99-4.05ZM195.44-12L195.29-20.25Q195.24-21.25 194.96-21.6 194.69-21.95 193.94-21.95L193.94-21.95 192.64-21.95 192.44-22.3 192.69-25.25Q193.39-25.25 195.26-25.18 197.14-25.1 198.99-25.1L198.99-25.1Q200.79-25.1 202.36-25.15 203.94-25.2 204.49-25.25L204.49-25.25 204.29-22Q202.94-21.8 202.39-21.25 201.84-20.7 201.79-19.55L201.79-19.55 201.24 0.1 194.64 0.6Q191.34-4.25 188.54-8.22 185.74-12.2 184.94-13.25L184.94-13.25 184.39-13.25 184.49-5.05Q184.49-3.95 184.81-3.55 185.14-3.15 186.04-3.15L186.04-3.15Q186.44-3.15 186.91-3.2 187.39-3.25 187.54-3.25L187.54-3.25 187.89-2.95 187.44 0.15Q186.74 0.15 184.91 0.08 183.09 0 181.39 0L181.39 0Q179.79 0 177.91 0.13 176.04 0.25 175.49 0.3L175.49 0.3 175.89-2.95Q177.09-3.1 177.64-3.68 178.19-4.25 178.24-5.4L178.24-5.4 178.74-19.45Q178.74-20.75 178.14-21.2 177.54-21.65 175.54-21.9L175.54-21.9 175.14-22.4 175.39-25.3Q175.89-25.25 177.64-25.18 179.39-25.1 181.09-25.1L181.09-25.1Q182.69-25.1 184.09-25.15 185.49-25.2 185.94-25.25L185.94-25.25Q188.59-21 191.34-17.05 194.09-13.1 194.89-12L194.89-12 195.44-12ZM210.93 0.4L211.23-2.95Q212.98-3.1 213.83-3.4 214.68-3.7 215.01-4.33 215.33-4.95 215.33-6.2L215.33-6.2 215.33-6.95Q215.33-7.85 215.08-8.6 214.83-9.35 214.18-10.6L214.18-10.6 209.83-18.25Q209.08-19.5 208.08-20.35 207.08-21.2 205.58-21.7L205.58-21.7 205.38-21.9 205.78-25.15Q206.48-25.15 208.33-25.1 210.18-25.05 211.73-25.05L211.73-25.05Q212.93-25.05 215.48-25.18 218.03-25.3 218.88-25.35L218.88-25.35 219.18-24.95 218.78-22Q217.78-22 217.33-21.75 216.88-21.5 216.88-20.95L216.88-20.95Q216.88-20.65 217.58-19.1 218.28-17.55 218.48-17.05L218.48-17.05Q219.08-15.85 219.58-14.65L219.58-14.65 220.08-14.65 222.28-19.55Q222.88-20.6 222.88-21.35L222.88-21.35Q222.88-22 221.13-22L221.13-22 220.98-22.25 221.33-25.1 227.48-25.05Q229.08-25.05 230.38-25.1 231.68-25.15 232.08-25.2L232.08-25.2 232.23-24.9 231.88-21.8Q229.23-20.55 227.13-16.9L227.13-16.9 223.33-9.85Q222.88-8.9 222.78-8.1 222.68-7.3 222.68-5.55L222.68-5.55Q222.68-4.3 223.13-3.8 223.58-3.3 224.68-3.3L224.68-3.3Q225.43-3.3 226.01-3.35 226.58-3.4 226.78-3.4L226.78-3.4 226.98-3.2 226.58 0.2Q225.68 0.15 223.26 0.08 220.83 0 218.58 0L218.58 0Q216.98 0 214.38 0.18 211.78 0.35 210.93 0.4L210.93 0.4ZM253.88 0.45Q248.03 0.45 244.85-2.8 241.68-6.05 241.68-12.05L241.68-12.05Q241.68-18.5 245.23-22.03 248.78-25.55 255.23-25.55L255.23-25.55Q261.18-25.55 264.3-22.43 267.43-19.3 267.43-13.25L267.43-13.25Q267.43-6.8 263.83-3.18 260.23 0.45 253.88 0.45L253.88 0.45ZM254.73-4.05Q256.88-4.05 257.93-5.7 258.98-7.35 258.98-10.9L258.98-10.9Q258.98-16.1 257.85-18.38 256.73-20.65 254.28-20.65L254.28-20.65Q252.18-20.65 251.18-19.03 250.18-17.4 250.18-13.85L250.18-13.85Q250.18-8.65 251.25-6.35 252.33-4.05 254.73-4.05L254.73-4.05ZM269.88 0.4L270.27-2.95Q271.88-3.15 272.45-3.88 273.02-4.6 273.02-6.35L273.02-6.35 273.07-19.8Q273.07-21.05 272.82-21.48 272.57-21.9 271.88-21.9L271.88-21.9 270.73-21.85 270.32-22.35 270.68-25.2Q271.57-25.2 274.15-25.15 276.73-25.1 279.63-25.1L279.63-25.1Q287.32-25.1 291.27-25.55L291.27-25.55 291.73-25.05Q291.63-24.35 291.35-22 291.07-19.65 290.93-17.45L290.93-17.45 285.88-17.15Q285.88-17.3 285.93-17.73 285.98-18.15 285.98-18.6L285.98-18.6Q285.98-19.95 285.3-20.38 284.63-20.8 282.48-20.8L282.48-20.8Q281.38-20.8 281.07-20.6 280.77-20.4 280.77-19.7L280.77-19.7 280.48-14.2 284.07-14.15Q284.82-14.15 286.35-14.28 287.88-14.4 288.38-14.45L288.38-14.45 288.82-13.95 288.27-9.75Q287.77-9.75 286.38-9.8 284.98-9.85 283.48-9.85L283.48-9.85Q282.52-9.85 281.57-9.75 280.63-9.65 280.32-9.65L280.32-9.65 280.27-6.5Q280.27-5.05 280.63-4.58 280.98-4.1 282.02-4.1L282.02-4.1Q282.73-4.1 283.5-4.23 284.27-4.35 284.52-4.4L284.52-4.4 285.07-3.75 284.57 0.1Q283.82 0.1 281.82 0.05 279.82 0 277.93 0L277.93 0Q275.48 0 273.02 0.18 270.57 0.35 269.88 0.4L269.88 0.4ZM325.77 0.8Q323.92 0.8 322.59-0.33 321.27-1.45 320.22-3.8L320.22-3.8 316.42-12.1 313.22-12.1 313.17-7.45Q313.17-5.7 313.39-4.98 313.62-4.25 314.32-4 315.02-3.75 316.72-3.7L316.72-3.7 316.97-3.35 316.47 0.2 309.12 0Q307.07 0 304.59 0.15 302.12 0.3 301.37 0.35L301.37 0.35 301.82-3.5Q303.82-3.8 304.52-4.67 305.22-5.55 305.22-7.65L305.22-7.65 305.27-26.15Q305.27-27.5 304.94-28 304.62-28.5 303.77-28.5L303.77-28.5Q303.22-28.5 302.72-28.45 302.22-28.4 302.07-28.4L302.07-28.4 301.67-28.85 302.17-32.3Q302.92-32.3 304.89-32.25 306.87-32.2 308.77-32.2L308.77-32.2Q311.02-32.2 313.57-32.3 316.12-32.4 317.12-32.45L317.12-32.45Q323.32-32.45 326.54-30.2 329.77-27.95 329.77-23.55L329.77-23.55Q329.77-20.6 328.12-18.18 326.47-15.75 323.37-14.05L323.37-14.05 327.17-7.8Q328.52-5.55 329.79-4.5 331.07-3.45 332.42-3.45L332.42-3.45 332.87-2.8 332.47 0.25 325.77 0.8ZM317.57-16.8Q319.17-17.55 320.25-18.8 321.32-20.05 321.32-22.55L321.32-22.55Q321.32-25.05 319.67-26.25 318.02-27.45 314.62-27.45L314.62-27.45Q314.12-27.45 313.97-27.25 313.82-27.05 313.77-26.35L313.77-26.35Q313.47-22.05 313.37-17.3L313.37-17.3 317.57-16.8ZM334.17 0.4L334.57-2.95Q336.17-3.2 336.74-3.93 337.32-4.65 337.32-6.35L337.32-6.35 337.37-19.8Q337.37-21.05 337.12-21.48 336.87-21.9 336.17-21.9L336.17-21.9 335.02-21.85 334.62-22.35 334.97-25.2Q335.87-25.2 338.44-25.15 341.02-25.1 343.92-25.1L343.92-25.1Q352.37-25.1 356.67-25.55L356.67-25.55 357.12-25.05Q356.97-24.4 356.62-22.08 356.27-19.75 356.17-17.45L356.17-17.45 351.07-17.1Q351.07-17.25 351.12-17.7 351.17-18.15 351.17-18.6L351.17-18.6Q351.17-19.55 350.84-20 350.52-20.45 349.62-20.63 348.72-20.8 346.77-20.8L346.77-20.8Q345.67-20.8 345.37-20.6 345.07-20.4 345.07-19.7L345.07-19.7 344.82-14.85 348.37-14.85Q349.62-14.85 351.02-14.95 352.42-15.05 352.97-15.1L352.97-15.1 353.42-14.6 352.82-10.4Q352.32-10.4 350.84-10.45 349.37-10.5 347.77-10.5L347.77-10.5Q346.87-10.5 345.92-10.4 344.97-10.3 344.62-10.3L344.62-10.3Q344.57-8.6 344.57-6.45L344.57-6.45Q344.57-5.35 344.72-4.9 344.87-4.45 345.32-4.28 345.77-4.1 346.77-4.1L346.77-4.1Q348.87-4.1 349.87-4.4 350.87-4.7 351.34-5.55 351.82-6.4 352.12-8.3L352.12-8.3 356.82-8.65 357.22-8.1Q357.07-7.45 356.69-5.15 356.32-2.85 356.12-0.3L356.12-0.3 355.52 0.25Q354.32 0.2 350.22 0.1 346.12 0 342.42 0L342.42 0Q339.87 0 337.37 0.18 334.87 0.35 334.17 0.4L334.17 0.4ZM371.76 0.4Q365.96 0.4 362.74-2.88 359.51-6.15 359.51-12.05L359.51-12.05Q359.51-18.5 363.31-22.03 367.11-25.55 374.01-25.55L374.01-25.55Q375.61-25.55 377.49-25.33 379.36-25.1 380.71-24.88 382.06-24.65 382.46-24.55L382.46-24.55 382.76-23.85Q382.71-23.55 382.49-22.48 382.26-21.4 382.01-19.63 381.76-17.85 381.61-15.8L381.61-15.8 376.01-15.5Q376.01-15.65 376.04-16.25 376.06-16.85 376.06-17.65L376.06-17.65Q376.06-19.25 375.29-19.93 374.51-20.6 372.66-20.6L372.66-20.6Q370.11-20.6 369.04-18.98 367.96-17.35 367.96-13.4L367.96-13.4Q367.96-4.6 372.91-4.6L372.91-4.6Q374.71-4.6 375.61-5.68 376.51-6.75 376.86-9.3L376.86-9.3 382.41-9.7Q382.31-8.95 382.09-6.43 381.86-3.9 381.81-1.65L381.81-1.65 381.31-1.05Q380.96-0.95 379.66-0.6 378.36-0.25 376.24 0.08 374.11 0.4 371.76 0.4L371.76 0.4ZM385.56 0.25L385.86-2.9Q387.56-3.25 388.11-3.88 388.66-4.5 388.66-6.1L388.66-6.1 388.66-19.9Q388.66-21.1 388.36-21.5 388.06-21.9 387.21-21.9L387.21-21.9 386.01-21.9 385.66-22.35 386.01-25.15 392.36-25.1Q394.16-25.1 396.21-25.18 398.26-25.25 399.06-25.3L399.06-25.3 398.81-22.05Q397.31-21.85 396.86-21.48 396.41-21.1 396.31-20L396.31-20Q395.86-13 395.86-5.85L395.86-5.85Q395.86-4.25 396.16-3.7 396.46-3.15 397.31-3.15L397.31-3.15Q397.86-3.15 398.26-3.2 398.66-3.25 398.76-3.3L398.76-3.3 399.06-2.9 398.71 0.15Q397.91 0.15 395.86 0.08 393.81 0 392.01 0L392.01 0Q390.46 0 388.34 0.1 386.21 0.2 385.56 0.25L385.56 0.25ZM401.61 0.35L401.96-3Q403.56-3.25 404.13-3.95 404.71-4.65 404.71-6.25L404.71-6.25 404.71-19.8Q404.71-21 404.46-21.45 404.21-21.9 403.56-21.9L403.56-21.9 402.11-21.85 401.76-22.25 402.16-25.15 407.81-25.1Q409.66-25.1 411.83-25.2 414.01-25.3 414.86-25.35L414.86-25.35Q421.01-25.35 423.36-22.98 425.71-20.6 425.71-17.4L425.71-17.4Q425.71-15 424.31-12.9 422.91-10.8 420.53-9.55 418.16-8.3 415.51-8.3L415.51-8.3 411.96-8.3 411.91-6.15Q411.91-4.4 412.31-3.8 412.71-3.2 413.96-3.2L413.96-3.2Q414.46-3.2 414.91-3.25 415.36-3.3 415.51-3.3L415.51-3.3 415.66-3 415.26 0.15Q414.51 0.15 412.61 0.08 410.71 0 409.06 0L409.06 0Q407.81 0 405.16 0.15 402.51 0.3 401.61 0.35L401.61 0.35ZM415.16-12.3Q416.61-12.7 417.31-13.85 418.01-15 418.01-16.95L418.01-16.95Q418.01-19 416.86-19.93 415.71-20.85 413.16-20.85L413.16-20.85Q412.71-20.85 412.58-20.7 412.46-20.55 412.41-20.05L412.41-20.05Q412.11-15.95 412.06-12.75L412.06-12.75 415.16-12.3ZM427.01 0.4L427.41-2.95Q429.01-3.2 429.58-3.93 430.16-4.65 430.16-6.35L430.16-6.35 430.21-19.8Q430.21-21.05 429.96-21.48 429.71-21.9 429.01-21.9L429.01-21.9 427.86-21.85 427.46-22.35 427.81-25.2Q428.71-25.2 431.28-25.15 433.86-25.1 436.76-25.1L436.76-25.1Q445.21-25.1 449.51-25.55L449.51-25.55 449.96-25.05Q449.81-24.4 449.46-22.08 449.11-19.75 449.01-17.45L449.01-17.45 443.91-17.1Q443.91-17.25 443.96-17.7 444.01-18.15 444.01-18.6L444.01-18.6Q444.01-19.55 443.68-20 443.36-20.45 442.46-20.63 441.56-20.8 439.61-20.8L439.61-20.8Q438.51-20.8 438.21-20.6 437.91-20.4 437.91-19.7L437.91-19.7 437.66-14.85 441.21-14.85Q442.46-14.85 443.86-14.95 445.26-15.05 445.81-15.1L445.81-15.1 446.26-14.6 445.66-10.4Q445.16-10.4 443.68-10.45 442.21-10.5 440.61-10.5L440.61-10.5Q439.71-10.5 438.76-10.4 437.81-10.3 437.46-10.3L437.46-10.3Q437.41-8.6 437.41-6.45L437.41-6.45Q437.41-5.35 437.56-4.9 437.71-4.45 438.16-4.28 438.61-4.1 439.61-4.1L439.61-4.1Q441.71-4.1 442.71-4.4 443.71-4.7 444.18-5.55 444.66-6.4 444.96-8.3L444.96-8.3 449.66-8.65 450.06-8.1Q449.91-7.45 449.53-5.15 449.16-2.85 448.96-0.3L448.96-0.3 448.36 0.25Q447.16 0.2 443.06 0.1 438.96 0 435.26 0L435.26 0Q432.71 0 430.21 0.18 427.71 0.35 427.01 0.4L427.01 0.4ZM461.05 0.45Q458.95 0.45 457.2 0.1 455.45-0.25 454.43-0.63 453.4-1 453.15-1.15L453.15-1.15 452.7-1.8Q452.85-2.45 453.18-4.5 453.5-6.55 453.55-8.25L453.55-8.25 458.15-8.6Q458.15-6.25 459.08-5.25 460-4.25 462.05-4.25L462.05-4.25Q463.6-4.25 464.48-4.78 465.35-5.3 465.35-6.2L465.35-6.2Q465.35-7.25 464.28-7.95 463.2-8.65 460.85-9.6L460.85-9.6 459.4-10.2Q456.4-11.5 454.7-13.13 453-14.75 453-17.4L453-17.4Q453-19.8 454.53-21.65 456.05-23.5 458.8-24.53 461.55-25.55 465.15-25.55L465.15-25.55Q467.1-25.55 468.8-25.33 470.5-25.1 471.5-24.85 472.5-24.6 472.75-24.5L472.75-24.5 473.2-23.75Q473.05-23.2 472.68-21.2 472.3-19.2 472.1-17L472.1-17 467.9-16.7 467.4-17 467.45-17.8Q467.45-20.65 464.1-20.65L464.1-20.65Q462.75-20.65 461.88-20.1 461-19.55 461-18.65L461-18.65Q461-17.5 462.23-16.8 463.45-16.1 466.3-14.95L466.3-14.95Q469.65-13.55 471.55-11.98 473.45-10.4 473.45-7.6L473.45-7.6Q473.45-3.9 470.13-1.73 466.8 0.45 461.05 0.45L461.05 0.45Z" opacity="1" transform="matrix(1,0,0,1,0,0)" fill="#961019" class="wordmark-text-0" data-fill-palette-color="primary" id="text-0"></path></svg></g></svg></g></svg></g></svg></g><g><svg viewBox="0 0 61.45304780637521 61.45304780637521" height="61.45304780637521" width="61.45304780637521"><g><svg></svg></g><g id="icon-0"><svg viewBox="0 0 61.45304780637521 61.45304780637521" height="61.45304780637521" width="61.45304780637521"><g><path d="M0 30.727c0-16.97 13.757-30.727 30.727-30.727 16.97 0 30.727 13.757 30.726 30.727 0 16.97-13.757 30.727-30.726 30.726-16.97 0-30.727-13.757-30.727-30.726zM30.727 58.915c15.568 0 28.188-12.62 28.188-28.188 0-15.568-12.62-28.188-28.188-28.189-15.568 0-28.188 12.62-28.189 28.189 0 15.568 12.62 28.188 28.189 28.188z" data-fill-palette-color="accent" fill="#f67357" stroke="transparent"></path></g><g transform="matrix(1,0,0,1,16.602115161156092,19.436203121534554)"><svg viewBox="0 0 28.24881748406302 22.580641563306102" height="22.580641563306102" width="28.24881748406302"><g><svg xmlns="http://www.w3.org/2000/svg" xmlns:xlink="http://www.w3.org/1999/xlink" xmlns:a="http://ns.adobe.com/AdobeSVGViewerExtensions/3.0/" version="1.1" x="0" y="0" viewBox="0 -0.000004254926823626937 79.24081622916955 63.341004254926816" enable-background="new -12.98 -15.909 99 100" xml:space="preserve" height="22.580641563306102" width="28.24881748406302" class="icon-cg-0" data-fill-palette-color="accent" id="cg-0"><path d="M0 35.995c0 8.982 17.964 21.957 17.964 23.753s0 3.593 0 3.593h35.927c0 0 0-2.195 0-3.793 0-1.596 17.964-14.57 17.964-23.553C68.262 35.833 5.788 35.833 0 35.995z" fill="#f67357" data-fill-palette-color="accent"></path><path d="M71.855 31.443c0-2.103 0-3.631 0-3.631H0c0 0 0 1.528 0 3.631H71.855z" fill="#f67357" data-fill-palette-color="accent"></path><path d="M63.565 13.776c-3.166 1.385-6.242 2.799-7.349 3.576-0.179 0.475-0.36 0.898-0.536 1.312-0.191 0.445-0.388 0.906-0.59 1.451l-1.404 3.776-2.562-3.109c-0.132-0.161-0.386-0.43-0.598-0.43-0.037 0-0.079 0.005-0.126 0.014l-1.737 0.348-0.793-1.585c-0.02-0.039-0.039-0.072-0.057-0.099l-1.921 0.96-1.046-2.07c-0.086-0.15-0.479-0.515-0.844-0.515-0.323 0-0.693 0.322-0.885 0.513L41.936 19.1l-1.496-0.748c-0.146-0.072-0.543-0.243-1.056-0.243-0.889 0-1.75 0.538-2.562 1.601l-3.982-2.309c1.604-3.807 5.562-7.721 8.255-8.988 1.887-0.889 3.612-1.32 5.273-1.32 2.28 0 4.043 0.795 5.708 1.646 0.549-0.204 1.318-0.539 2.221-0.955-1.726-1.678-3.793-2.63-5.861-1.596-1.797-3.593-10.18-6.587-17.365 0.599-3.593-1.796-13.173-1.796-14.97 7.186-1.796-1.796-5.389-1.796-7.186 1.796-5.389-1.796-7.186 9.58-7.186 9.58h68.263C69.993 25.348 68.083 17.392 63.565 13.776z" fill="#f67357" data-fill-palette-color="accent"></path><path fill-rule="evenodd" clip-rule="evenodd" d="M75.622 0.135c-3.402 0.842-20.666 10.515-23.787 11.089-2.838-1.463-5.215-2.847-9.751-0.712-2.103 0.99-3.093 2.042-5.018 5.195 2.788-1.834 3.202-0.035 4.411 0.57 2.42-2.419 4.839-0.605 5.443 0.604 1.21-0.604 2.42 0 3.024 1.209 1.317-0.263 2.291 0.392 2.97 1.216 0.494-1.328 0.926-2.125 1.322-3.314 2.172-2.347 20.719-9.087 23.545-11.247C80.61 2.587 79.023-0.708 75.622 0.135z" fill="#f67357" data-fill-palette-color="accent"></path></svg></g></svg></g></svg></g></svg></g></svg></g><defs></defs></svg><rect width="395.52" height="51.685980207268926" fill="none" stroke="none" visibility="hidden"></rect></g></svg></g></svg>